<svg width="24" height="24" viewBox="0 0 24 24" fill="none" xmlns="http://www.w3.org/2000/svg">
<g clip-path="url(#clip0_2183_6708)">
<path d="M19.7494 0.299808H4.25063C3.69222 0.299068 3.13915 0.408508 2.62311 0.62186C2.10707 0.835212 1.63819 1.14828 1.24333 1.54314C0.848477 1.93799 0.535407 2.40687 0.322055 2.92291C0.108704 3.43896 -0.000736699 3.99203 3.7321e-06 4.55043V19.4492C-0.000736699 20.0076 0.108704 20.5607 0.322055 21.0767C0.535407 21.5927 0.848477 22.0616 1.24333 22.4565C1.63819 22.8513 2.10707 23.1644 2.62311 23.3778C3.13915 23.5911 3.69222 23.7005 4.25063 23.6998H19.7494C20.3078 23.7005 20.8609 23.5911 21.3769 23.3778C21.8929 23.1644 22.3618 22.8513 22.7567 22.4565C23.1515 22.0616 23.4646 21.5927 23.678 21.0767C23.8913 20.5607 24.0007 20.0076 24 19.4492V4.55043C24.0007 3.99203 23.8913 3.43896 23.678 2.92291C23.4646 2.40687 23.1515 1.93799 22.7567 1.54314C22.3618 1.14828 21.8929 0.835212 21.3769 0.62186C20.8609 0.408508 20.3078 0.299068 19.7494 0.299808ZM14.67 16.7998H12.5794C12.5441 16.8025 12.5091 16.793 12.48 16.7728C12.451 16.7527 12.4298 16.7231 12.42 16.6892L11.6006 14.3004H7.875L7.125 16.6498C7.11681 16.6924 7.09306 16.7303 7.0584 16.7563C7.02374 16.7823 6.98064 16.7945 6.9375 16.7904H5.0625C4.95375 16.7904 4.92375 16.7304 4.95375 16.6029L8.16 7.34043C8.19 7.23918 8.22 7.13043 8.25938 7.01043C8.30037 6.79601 8.32047 6.57811 8.31938 6.35981C8.31653 6.33462 8.32324 6.30929 8.33816 6.28881C8.35309 6.26832 8.37516 6.25419 8.4 6.24918H10.9894C11.07 6.24918 11.1094 6.27918 11.1206 6.32981L14.7694 16.6292C14.7994 16.7398 14.7694 16.7904 14.67 16.7904V16.7998ZM18.12 16.6873C18.12 16.7979 18.0806 16.8467 17.9906 16.8467H16.0294C16.0085 16.8483 15.9874 16.8452 15.9679 16.8376C15.9483 16.83 15.9307 16.8181 15.9163 16.8028C15.9019 16.7876 15.8911 16.7693 15.8847 16.7493C15.8784 16.7293 15.8765 16.7081 15.8794 16.6873V8.97918C15.8794 8.87981 15.9206 8.84043 16.0106 8.84043H18C18.09 8.84043 18.1294 8.88918 18.1294 8.97918L18.12 16.6873ZM17.91 7.64981C17.7921 7.76958 17.65 7.86282 17.4932 7.92328C17.3363 7.98375 17.1684 8.01005 17.0006 8.00043C16.8363 8.00405 16.673 7.97491 16.52 7.91471C16.3671 7.85452 16.2277 7.76446 16.11 7.64981C15.8799 7.39972 15.7579 7.06881 15.7706 6.72918C15.7636 6.56442 15.7916 6.40004 15.8526 6.24686C15.9137 6.09368 16.0065 5.95517 16.125 5.84043C16.3646 5.61278 16.6833 5.48707 17.0138 5.48981C17.1817 5.48112 17.3497 5.50785 17.5067 5.56825C17.6636 5.62866 17.8062 5.72139 17.925 5.84043C18.146 6.08274 18.2643 6.40137 18.255 6.72918C18.2617 6.89788 18.2346 7.06622 18.1754 7.22431C18.1162 7.3824 18.0259 7.52707 17.91 7.64981ZM11.0006 12.2698H8.46C8.61 11.8498 8.76 11.3792 8.90063 10.8692C9.04125 10.3592 9.21 9.86981 9.36 9.38981C9.49659 8.96633 9.60989 8.53568 9.69938 8.09981H9.72C9.78938 8.33981 9.86063 8.60043 9.93938 8.87981C10.0181 9.15918 10.11 9.45918 10.2094 9.77043C10.3088 10.0817 10.3969 10.3798 10.5 10.6892C10.6031 10.9986 10.6875 11.2798 10.77 11.5498C10.8525 11.8198 10.9406 12.0598 11.0006 12.2698Z" fill="black"/>
</g>
<defs>
<clipPath id="clip0_2183_6708">
<rect width="24" height="24" fill="white"/>
</clipPath>
</defs>
</svg>
