<svg width="25" height="24" viewBox="0 0 25 24" fill="none" xmlns="http://www.w3.org/2000/svg">
<g clip-path="url(#clip0_2183_6704)">
<path d="M20.8496 0C23.1418 0 25 1.82676 25 4.08008V19.8818C24.9999 22.135 23.1417 23.9619 20.8496 23.9619H4.15039C1.85827 23.9619 0.000128972 22.135 0 19.8818V4.08008C0 1.82676 1.85819 0 4.15039 0H20.8496ZM19.6533 8.57715C19.1124 8.56732 18.5775 8.69434 18.1016 8.94727C17.6778 9.17143 17.2998 9.4712 16.9863 9.83008C16.9862 9.69826 16.9808 9.57431 16.9697 9.45898C16.9596 9.35094 16.9422 9.24376 16.9189 9.1377C16.9032 9.05697 16.8749 8.97846 16.835 8.90625C16.8079 8.80965 16.719 8.74217 16.6172 8.74121H14.7891L14.7773 8.73926C14.7618 8.73739 14.7451 8.73961 14.7305 8.74512C14.716 8.75064 14.7026 8.75902 14.6924 8.77051C14.682 8.78212 14.6755 8.7965 14.6719 8.81152C14.6683 8.82654 14.6679 8.84248 14.6719 8.85742C14.709 9.08095 14.7318 9.30682 14.7393 9.5332L14.7471 9.73145C14.7544 9.93177 14.7594 10.1326 14.7637 10.333C14.7645 10.3713 14.766 10.4095 14.7666 10.4473L14.7695 10.6709C14.7714 10.8179 14.7725 10.9607 14.7725 11.0986V16.7705C14.7692 16.7928 14.7711 16.8156 14.7783 16.8369C14.7856 16.8584 14.7982 16.8785 14.8145 16.8945C14.8306 16.9104 14.8504 16.9226 14.8721 16.9297C14.8939 16.9368 14.9177 16.9388 14.9404 16.9355H16.9697C17.059 16.9355 17.1035 16.8858 17.1035 16.7871V11.5605C17.264 11.3998 17.4548 11.2712 17.665 11.1816C18.2842 10.9131 18.9603 10.7939 19.6357 10.835C19.7475 10.835 19.8037 10.7967 19.8037 10.7197V8.72559C19.8066 8.70543 19.8044 8.68436 19.7979 8.66504C19.7913 8.6458 19.7802 8.62861 19.7656 8.61426C19.751 8.59987 19.7335 8.58847 19.7139 8.58203C19.6944 8.57565 19.6737 8.57435 19.6533 8.57715ZM6.50488 6.13672C6.48438 6.13385 6.463 6.13613 6.44336 6.14258C6.42388 6.14903 6.40614 6.15954 6.3916 6.17383C6.37708 6.18811 6.36594 6.20548 6.35938 6.22461C6.35283 6.24393 6.35058 6.265 6.35352 6.28516V16.7539C6.35342 16.8748 6.4096 16.9355 6.52148 16.9355H13.1289C13.1639 16.9351 13.1984 16.926 13.2295 16.9102C13.2496 16.896 13.2667 16.8779 13.2783 16.8564C13.2899 16.8351 13.2961 16.8113 13.2969 16.7871L13.5986 15.0068C13.6209 14.908 13.5819 14.8584 13.4814 14.8584H8.66797V6.25195C8.67019 6.23634 8.66914 6.22003 8.66406 6.20508C8.65898 6.19024 8.64991 6.17711 8.63867 6.16602C8.62736 6.15488 8.6138 6.14566 8.59863 6.14062C8.58337 6.1356 8.56672 6.13451 8.55078 6.13672H6.50488Z" fill="black"/>
</g>
<defs>
<clipPath id="clip0_2183_6704">
<rect width="25" height="24" fill="white"/>
</clipPath>
</defs>
</svg>
