<svg width="24" height="24" viewBox="0 0 24 24" fill="none" xmlns="http://www.w3.org/2000/svg">
<path d="M12.0248 2C13.3748 2 14.4292 2.50833 15.1878 3.525C15.9465 4.54167 16.5922 5.7 17.1248 7C17.5582 8.05 17.9748 9.21667 18.3748 10.5C18.7748 11.7833 19.1998 13.075 19.6498 14.375C20.0832 15.625 20.5582 16.8 21.0748 17.9C21.5915 19 22.1915 19.9417 22.8748 20.725C23.0082 20.875 23.0665 21.05 23.0498 21.25C23.0332 21.45 22.9582 21.625 22.8248 21.775C22.6915 21.925 22.5332 22.0083 22.3498 22.025C22.1665 22.0417 21.9832 21.9833 21.7998 21.85C20.4832 20.8167 19.3998 19.6623 18.5498 18.387C17.6998 17.1117 16.8415 15.9993 15.9748 15.05C15.4082 14.4167 14.8042 13.9167 14.1628 13.55C13.5215 13.1833 12.8088 13 12.0248 13C11.2408 13 10.5285 13.1833 9.88785 13.55C9.24718 13.9167 8.64285 14.4167 8.07485 15.05C7.20818 16 6.34985 17.1127 5.49985 18.388C4.64985 19.6633 3.56651 20.8173 2.24985 21.85C2.06651 21.9833 1.88318 22.0417 1.69985 22.025C1.51651 22.0083 1.35818 21.925 1.22485 21.775C1.09151 21.625 1.01651 21.45 0.999848 21.25C0.983181 21.05 1.04151 20.875 1.17485 20.725C1.85818 19.9417 2.45818 19 2.97485 17.9C3.49151 16.8 3.96651 15.625 4.39985 14.375C4.84985 13.075 5.27485 11.7833 5.67485 10.5C6.07485 9.21667 6.49151 8.05 6.92485 7C7.45818 5.7 8.10418 4.54167 8.86285 3.525C9.62151 2.50833 10.6755 2 12.0248 2Z" fill="black"/>
</svg>
