<svg width="24" height="24" viewBox="0 0 24 24" fill="none" xmlns="http://www.w3.org/2000/svg">
<path d="M4.24988 0C1.89994 0 0 1.90012 0 4.25025V19.1498C0 21.4999 1.89994 23.4 4.24988 23.4H19.7501C22.1001 23.4 24 21.4999 24 19.1498V4.25025C24 1.90012 22.1001 0 19.7501 0H4.24988ZM8.60006 5.95013C9.42 5.95013 10.1001 6.04988 10.6599 6.25988C11.162 6.43046 11.6197 6.71068 12 7.08019C12.3222 7.40347 12.5712 7.79217 12.7301 8.22C12.8801 8.64 12.9598 9.06994 12.9598 9.51994C12.9598 10.3799 12.7598 11.0899 12.3598 11.6499C11.9601 12.2098 11.4002 12.63 10.7501 12.87C10.0701 13.1201 9.32006 13.2099 8.50012 13.2099C8.26012 13.2099 8.09981 13.2099 7.99988 13.2C7.89994 13.1901 7.75988 13.1901 7.56994 13.1901V16.4001C7.57988 16.47 7.53 16.5302 7.46006 16.5401H5.52C5.44013 16.5401 5.40038 16.4998 5.40038 16.4098V6.12C5.40038 6.05006 5.43037 6.00975 5.50031 6.00975C5.67037 6.00975 5.83031 6.00975 6.06019 6C6.30019 5.98988 6.55013 5.99025 6.82013 5.98013C7.09013 5.97019 7.38019 5.97 7.69012 5.96006C8.00025 5.94994 8.30006 5.95013 8.60006 5.95013ZM8.82319 7.91963C8.77213 7.91865 8.72105 7.91878 8.67 7.92C8.41013 7.92 8.18006 7.92019 7.98994 7.93031C7.79006 7.92019 7.65019 7.93013 7.58025 7.94006V11.3001C7.72013 11.3102 7.84988 11.3199 7.96988 11.3199H8.50012C8.89012 11.3199 9.28012 11.2599 9.65006 11.1399C9.97012 11.0499 10.2501 10.8598 10.47 10.6099C10.68 10.3598 10.7801 10.02 10.7801 9.57994C10.7893 9.26753 10.7096 8.95893 10.5503 8.69006C10.3802 8.43019 10.14 8.22994 9.84994 8.12006C9.52613 7.98881 9.17944 7.92656 8.82319 7.91963ZM17.2101 8.43019C17.6201 8.43019 18.0401 8.45981 18.45 8.51981C18.75 8.55975 19.0399 8.64019 19.3099 8.75025C19.35 8.76019 19.3899 8.79994 19.4098 8.83988C19.4199 8.87981 19.4301 8.91994 19.4301 8.95988V10.59C19.4302 10.6094 19.4257 10.6286 19.417 10.6459C19.4084 10.6633 19.3958 10.6784 19.3802 10.6899C19.2902 10.71 19.2401 10.71 19.2002 10.6899C18.9002 10.53 18.5799 10.4201 18.2398 10.3502C17.8699 10.2701 17.4999 10.2199 17.1201 10.2199C16.92 10.2098 16.7098 10.2401 16.5199 10.29C16.3898 10.32 16.2799 10.3901 16.2099 10.4901C16.1601 10.5701 16.1301 10.6701 16.1301 10.7601C16.1301 10.8501 16.1702 10.9401 16.2302 11.0199C16.3202 11.13 16.44 11.2202 16.5699 11.2903C16.8018 11.4102 17.0387 11.5201 17.28 11.6198C17.82 11.7998 18.3399 12.0501 18.8199 12.3501C19.1499 12.5601 19.4199 12.8402 19.6099 13.1801C19.7708 13.4991 19.8499 13.853 19.8401 14.2101C19.8482 14.6828 19.7121 15.1467 19.4498 15.54C19.1709 15.9391 18.7818 16.2484 18.33 16.4299C17.8399 16.6399 17.2399 16.7499 16.5199 16.7499C16.0598 16.7499 15.6101 16.71 15.1601 16.62C14.8074 16.5591 14.4644 16.4514 14.1401 16.2999C14.0702 16.26 14.0199 16.1899 14.0299 16.1098V14.37C14.0299 14.34 14.0398 14.2999 14.0698 14.28C14.0998 14.2599 14.1298 14.2703 14.1598 14.2901C14.545 14.5174 14.9635 14.6827 15.3999 14.7803C15.78 14.8802 16.1801 14.9301 16.5803 14.9301C16.9601 14.9301 17.2301 14.88 17.4101 14.79C17.5701 14.7201 17.6799 14.55 17.6799 14.37C17.6799 14.2301 17.6001 14.0998 17.4399 13.9697C17.28 13.8398 16.95 13.6899 16.4601 13.5C15.9573 13.3229 15.4799 13.0809 15.0399 12.78C14.7266 12.5567 14.467 12.2664 14.28 11.9301C14.1204 11.6142 14.0414 11.2638 14.0501 10.9101C14.0501 10.4801 14.1699 10.0701 14.3899 9.70013C14.6398 9.30019 15.0101 8.98013 15.4402 8.78025C15.9101 8.54025 16.4998 8.43019 17.2101 8.43019Z" fill="black"/>
</svg>
